<?xml version="1.0" encoding="utf-8"?>
<!-- Generator: Adobe Illustrator 22.0.1, SVG Export Plug-In . SVG Version: 6.00 Build 0)  -->
<svg version="1.1" id="Layer_1" xmlns="http://www.w3.org/2000/svg" xmlns:xlink="http://www.w3.org/1999/xlink" x="0px" y="0px"
	 viewBox="0 0 439.2 98.4" style="enable-background:new 0 0 439.2 98.4;" xml:space="preserve">
<style type="text/css">
	.st0{enable-background:new    ;}
	.st1{fill:#41228E;}
	.st2{fill:#F99D2E;}
	.st3{fill:#FFFFFF;}
	.st4{fill:#2A35F4;}
	.st5{fill:none;stroke:#F99D2E;stroke-width:3;stroke-linecap:round;stroke-miterlimit:10;}
	.st6{fill:none;stroke:#F99D2E;stroke-width:3;stroke-linecap:round;stroke-miterlimit:10;stroke-dasharray:7.0708,7.0708;}
</style>
<g class="st0">
	<path class="st1" d="M17.8,66.6V23.9h9.1c3.5,0,6.2,1,8,2.9c1.8,1.9,2.7,4.6,2.7,8.2v20c0,4-1,7-2.9,8.9c-1.9,1.9-4.7,2.8-8.4,2.8
		H17.8z M24,29.6v31.2h2.8c1.7,0,2.9-0.4,3.7-1.3c0.7-0.9,1.1-2.2,1.1-4V34.9c0-1.7-0.3-3-1-3.9c-0.7-0.9-1.9-1.4-3.7-1.4H24z"/>
	<path class="st1" d="M54.6,66.6v-3.1h-0.1c-0.8,1.1-1.6,2-2.4,2.6c-0.8,0.6-2,0.9-3.4,0.9c-0.7,0-1.5-0.1-2.2-0.3
		c-0.7-0.2-1.5-0.6-2.1-1.2c-0.7-0.6-1.2-1.4-1.7-2.4c-0.4-1.1-0.6-2.4-0.6-4.1c0-1.7,0.1-3.2,0.4-4.5c0.3-1.3,0.8-2.4,1.6-3.3
		c0.7-0.8,1.7-1.5,2.9-1.9c1.2-0.4,2.8-0.6,4.7-0.6c0.2,0,0.4,0,0.7,0s0.5,0,0.7,0.1c0.2,0,0.4,0.1,0.7,0.1c0.3,0,0.6,0,0.9,0.1
		v-3.2c0-1-0.2-1.9-0.7-2.6c-0.4-0.7-1.2-1-2.4-1c-0.8,0-1.5,0.3-2.2,0.8c-0.7,0.5-1.1,1.3-1.3,2.3h-5.9c0.2-2.7,1.1-4.9,2.8-6.6
		c0.8-0.8,1.8-1.4,2.9-1.9s2.4-0.7,3.8-0.7c1.3,0,2.5,0.2,3.6,0.6c1.1,0.4,2.1,1,2.9,1.8c0.8,0.8,1.4,1.8,1.9,3
		c0.5,1.2,0.7,2.6,0.7,4.2v21.2H54.6z M54.6,53.5c-0.7-0.1-1.2-0.2-1.7-0.2c-1.3,0-2.5,0.3-3.4,0.9c-0.9,0.6-1.4,1.8-1.4,3.4
		c0,1.2,0.3,2.1,0.8,2.8c0.6,0.7,1.3,1.1,2.3,1.1c1,0,1.9-0.3,2.4-1c0.6-0.7,0.9-1.6,0.9-2.9V53.5z"/>
	<path class="st1" d="M65.2,36.2v-9.2h6.1v9.2h3.8V41h-3.8v16.9c0,0.7,0.1,1.3,0.2,1.7c0.1,0.4,0.4,0.7,0.7,0.9
		c0.3,0.2,0.7,0.3,1.2,0.4c0.5,0,1,0.1,1.7,0.1v5.8h-2.5c-1.4,0-2.6-0.2-3.5-0.7c-0.9-0.4-1.7-1-2.2-1.7c-0.6-0.7-1-1.4-1.2-2.3
		c-0.3-0.9-0.4-1.7-0.4-2.5V41h-3.1v-4.8H65.2z"/>
	<path class="st1" d="M89.1,66.6v-3.1h-0.1c-0.8,1.1-1.6,2-2.4,2.6c-0.8,0.6-2,0.9-3.4,0.9c-0.7,0-1.5-0.1-2.2-0.3
		c-0.7-0.2-1.5-0.6-2.1-1.2c-0.7-0.6-1.2-1.4-1.7-2.4c-0.4-1.1-0.6-2.4-0.6-4.1c0-1.7,0.1-3.2,0.4-4.5c0.3-1.3,0.8-2.4,1.6-3.3
		c0.7-0.8,1.7-1.5,2.9-1.9c1.2-0.4,2.8-0.6,4.7-0.6c0.2,0,0.4,0,0.7,0s0.5,0,0.7,0.1c0.2,0,0.4,0.1,0.7,0.1c0.3,0,0.6,0,0.9,0.1
		v-3.2c0-1-0.2-1.9-0.7-2.6c-0.4-0.7-1.2-1-2.4-1c-0.8,0-1.5,0.3-2.2,0.8c-0.7,0.5-1.1,1.3-1.3,2.3h-5.9c0.2-2.7,1.1-4.9,2.8-6.6
		c0.8-0.8,1.8-1.4,2.9-1.9s2.4-0.7,3.8-0.7c1.3,0,2.5,0.2,3.6,0.6c1.1,0.4,2.1,1,2.9,1.8c0.8,0.8,1.4,1.8,1.9,3
		c0.5,1.2,0.7,2.6,0.7,4.2v21.2H89.1z M89.1,53.5c-0.7-0.1-1.2-0.2-1.7-0.2c-1.3,0-2.5,0.3-3.4,0.9c-0.9,0.6-1.4,1.8-1.4,3.4
		c0,1.2,0.3,2.1,0.8,2.8c0.6,0.7,1.3,1.1,2.3,1.1c1,0,1.9-0.3,2.4-1c0.6-0.7,0.9-1.6,0.9-2.9V53.5z"/>
	<path class="st1" d="M119.8,36.2h-6.1v-1.4c0-1.4-0.3-2.6-1-3.6c-0.7-1-1.8-1.5-3.3-1.5c-0.8,0-1.5,0.2-2,0.5
		c-0.5,0.3-0.9,0.7-1.3,1.2c-0.3,0.5-0.5,1.1-0.7,1.8c-0.1,0.7-0.2,1.3-0.2,2.1c0,0.8,0,1.5,0.1,2.1c0.1,0.6,0.2,1.1,0.5,1.5
		c0.2,0.4,0.6,0.8,1,1.1c0.5,0.3,1.1,0.6,1.9,1l4.7,1.9c1.4,0.5,2.5,1.1,3.3,1.8c0.8,0.7,1.5,1.5,2,2.4c0.4,1,0.7,2.1,0.9,3.3
		c0.2,1.2,0.2,2.6,0.2,4.2c0,1.8-0.2,3.5-0.5,5c-0.4,1.5-0.9,2.8-1.7,3.9c-0.8,1.1-1.9,2-3.3,2.6c-1.4,0.6-3,1-5,1
		c-1.5,0-2.9-0.3-4.1-0.8s-2.4-1.2-3.3-2.2c-0.9-0.9-1.7-2-2.2-3.2c-0.5-1.2-0.8-2.5-0.8-4v-2.3h6.1v1.9c0,1.1,0.3,2.1,1,3
		c0.7,0.9,1.8,1.4,3.3,1.4c1,0,1.8-0.2,2.4-0.5c0.6-0.3,1-0.7,1.3-1.3c0.3-0.6,0.5-1.2,0.6-2c0.1-0.8,0.1-1.7,0.1-2.6
		c0-1.1,0-2-0.1-2.8s-0.2-1.3-0.5-1.7c-0.3-0.4-0.7-0.8-1.1-1.1c-0.5-0.3-1.1-0.6-1.8-0.9l-4.4-1.8c-2.6-1.1-4.4-2.5-5.3-4.3
		c-0.9-1.8-1.4-4-1.4-6.7c0-1.6,0.2-3.1,0.7-4.6c0.4-1.4,1.1-2.7,2-3.7c0.8-1,1.9-1.9,3.2-2.5c1.3-0.6,2.8-0.9,4.6-0.9
		c1.5,0,2.9,0.3,4.2,0.8c1.3,0.6,2.3,1.3,3.3,2.2c1.8,1.9,2.8,4.1,2.8,6.6V36.2z"/>
	<path class="st1" d="M124,78.9V36.2h6.1v2.8c0.8-0.9,1.5-1.6,2.3-2.2c0.8-0.6,2-0.9,3.5-0.9c2.5,0,4.3,1,5.3,2.9
		c0.4,0.7,0.6,1.5,0.8,2.5c0.2,1,0.2,2.3,0.2,4v11.6c0,2.2-0.1,3.9-0.2,4.9c-0.2,2-1.2,3.5-2.8,4.5c-0.8,0.5-2,0.8-3.5,0.8
		c-1.2,0-2.3-0.3-3.2-0.8c-0.9-0.5-1.8-1.3-2.4-2.3h-0.1v15.1H124z M136.2,46.1c0-1.2-0.2-2.2-0.7-3c-0.5-0.8-1.2-1.1-2.3-1.1
		c-0.9,0-1.7,0.4-2.2,1c-0.6,0.7-0.8,1.6-0.8,2.7v11.8c0,1,0.3,1.8,0.9,2.4c0.6,0.6,1.3,0.9,2.2,0.9c1.2,0,1.9-0.4,2.4-1.1
		c0.4-0.7,0.6-1.6,0.6-2.5V46.1z"/>
	<path class="st1" d="M159,66.6v-3.1h-0.1c-0.8,1.1-1.6,2-2.4,2.6c-0.8,0.6-2,0.9-3.5,0.9c-0.7,0-1.5-0.1-2.2-0.3
		c-0.7-0.2-1.5-0.6-2.1-1.2c-0.7-0.6-1.2-1.4-1.6-2.4c-0.4-1.1-0.6-2.4-0.6-4.1c0-1.7,0.1-3.2,0.4-4.5c0.3-1.3,0.8-2.4,1.6-3.3
		c0.7-0.8,1.7-1.5,2.9-1.9c1.2-0.4,2.8-0.6,4.7-0.6c0.2,0,0.4,0,0.7,0c0.2,0,0.5,0,0.7,0.1c0.2,0,0.4,0.1,0.7,0.1
		c0.3,0,0.6,0,0.9,0.1v-3.2c0-1-0.2-1.9-0.7-2.6c-0.4-0.7-1.2-1-2.4-1c-0.8,0-1.5,0.3-2.2,0.8c-0.7,0.5-1.1,1.3-1.3,2.3h-5.9
		c0.2-2.7,1.1-4.9,2.8-6.6c0.8-0.8,1.8-1.4,2.9-1.9c1.1-0.5,2.4-0.7,3.8-0.7c1.3,0,2.5,0.2,3.6,0.6c1.1,0.4,2.1,1,2.9,1.8
		c0.8,0.8,1.4,1.8,1.9,3c0.5,1.2,0.7,2.6,0.7,4.2v21.2H159z M159,53.5c-0.7-0.1-1.2-0.2-1.7-0.2c-1.3,0-2.5,0.3-3.4,0.9
		c-0.9,0.6-1.4,1.8-1.4,3.4c0,1.2,0.3,2.1,0.8,2.8c0.6,0.7,1.3,1.1,2.3,1.1c1,0,1.8-0.3,2.4-1c0.6-0.7,0.9-1.6,0.9-2.9V53.5z"/>
	<path class="st1" d="M176.1,57.8c0,1,0.3,1.7,0.8,2.2c0.5,0.5,1.3,0.8,2.2,0.8c1.2,0,1.9-0.3,2.3-1c0.4-0.7,0.6-1.4,0.7-2h6.1
		c0,2.7-0.8,4.8-2.5,6.5c-0.8,0.8-1.8,1.5-2.9,2c-1.1,0.5-2.4,0.7-3.8,0.7c-1.9,0-3.5-0.4-4.9-1.2c-1.3-0.8-2.4-1.9-3.1-3.2
		c-0.4-0.8-0.7-1.7-0.9-2.8c-0.2-1-0.2-2.2-0.2-3.4v-10c0-1.2,0.1-2.4,0.2-3.4c0.2-1,0.5-2,0.9-2.8c0.7-1.3,1.7-2.4,3.1-3.2
		c1.3-0.8,3-1.2,4.9-1.2c1.4,0,2.7,0.2,3.8,0.7c1.1,0.5,2.1,1.1,2.9,2c1.6,1.8,2.4,4.1,2.4,7h-6.1c0-1.2-0.3-2.2-0.8-2.7
		c-0.5-0.6-1.3-0.9-2.2-0.9s-1.6,0.3-2.2,0.9c-0.5,0.6-0.8,1.5-0.8,2.6V57.8z"/>
	<path class="st1" d="M209.5,53.7h-12.1v4.1c0,1,0.3,1.7,0.8,2.2c0.5,0.5,1.3,0.8,2.2,0.8c1.2,0,1.9-0.3,2.3-1
		c0.4-0.7,0.6-1.4,0.7-2h6.1c0,2.7-0.8,4.8-2.5,6.5c-0.8,0.8-1.8,1.5-2.9,2c-1.1,0.5-2.4,0.7-3.8,0.7c-1.9,0-3.5-0.4-4.9-1.2
		c-1.3-0.8-2.4-1.9-3.1-3.2c-0.4-0.8-0.7-1.7-0.9-2.8c-0.2-1-0.2-2.2-0.2-3.4v-10c0-1.2,0.1-2.4,0.2-3.4c0.2-1,0.5-2,0.9-2.8
		c0.7-1.3,1.7-2.4,3.1-3.2c1.3-0.8,3-1.2,4.9-1.2c1.4,0,2.7,0.2,3.8,0.7c1.1,0.5,2.1,1.1,2.9,2c1.6,1.8,2.4,4.1,2.4,6.8V53.7z
		 M197.4,48.9h6v-3.5c0-1.2-0.3-2-0.8-2.6c-0.5-0.6-1.3-0.9-2.2-0.9c-0.9,0-1.6,0.3-2.2,0.9c-0.5,0.6-0.8,1.5-0.8,2.6V48.9z"/>
</g>
<g class="st0">
	<path class="st1" d="M294.7,66.6h-4.4V34.8L281.8,57h-2.9l-8.5-22v31.6H266V25.2h4.4l10,25.6l9.9-25.6h4.4V66.6z"/>
	<path class="st1" d="M301.3,56.5V45.7c0-3.6,0.8-6.3,2.5-8c1.6-1.7,3.9-2.5,6.9-2.5c2.9,0,5.1,0.9,6.8,2.6c1.6,1.7,2.4,4.4,2.4,8
		v10.9c0,3.6-0.8,6.3-2.4,8c-1.6,1.7-3.9,2.6-6.8,2.6c-3,0-5.3-0.9-6.9-2.6C302.1,62.8,301.3,60.2,301.3,56.5z M315.7,56v-9.9
		c0-2.6-0.4-4.5-1.3-5.7c-0.9-1.1-2.2-1.7-3.8-1.7c-1.7,0-3,0.6-3.9,1.7c-0.9,1.1-1.4,3-1.4,5.7V56c0,2.7,0.5,4.6,1.4,5.7
		c0.9,1.1,2.2,1.7,3.9,1.7c1.7,0,3-0.6,3.8-1.7C315.3,60.6,315.7,58.7,315.7,56z"/>
	<path class="st1" d="M330.4,66.6h-4.1V25.2h4.1v13.4c1.4-2.3,3.3-3.5,5.9-3.5c2.5,0,4.5,0.9,6,2.6s2.2,4.4,2.2,7.9v10.9
		c0,3.6-0.8,6.2-2.2,8s-3.5,2.6-5.9,2.6c-2.6,0-4.6-1.1-5.9-3.3V66.6z M340.5,56v-9.9c0-4.9-1.6-7.4-4.9-7.4c-1.7,0-3,0.6-3.8,1.9
		s-1.3,3.1-1.3,5.5v9.9c0,2.4,0.4,4.2,1.3,5.5c0.9,1.2,2.2,1.9,3.8,1.9c1.6,0,2.8-0.6,3.6-1.7S340.5,58.7,340.5,56z"/>
	<path class="st1" d="M355.6,25.3v5.4h-4.1v-5.4H355.6z M355.5,35.6v31h-4.1v-31H355.5z"/>
	<path class="st1" d="M363,58.4V25.2h4.1v33c0,3.2,1.4,4.7,4.3,4.7h0.9v3.7h-1c-2.7,0-4.7-0.7-6.1-2.1C363.7,63.1,363,61.1,363,58.4
		z"/>
	<path class="st1" d="M381.6,25.3v5.4h-4.1v-5.4H381.6z M381.5,35.6v31h-4.1v-31H381.5z"/>
	<path class="st1" d="M394.8,58.3c0,1.6,0.4,2.8,1.1,3.6c0.8,0.8,1.9,1.2,3.5,1.2h0.8v3.6h-1c-5.7,0-8.5-2.7-8.5-8.2V38.8h-4v-3.2h4
		v-6.5l4.1-1.9v8.3h5.9v3.2h-5.9V58.3z"/>
	<path class="st1" d="M415.1,69.5c-0.6,2.3-1.6,4-3.1,4.9c-1.4,0.9-3.4,1.4-5.9,1.4h-0.6v-3.7h1c1.6,0,2.8-0.3,3.6-0.9
		s1.4-1.6,1.7-3l0.2-1l-8.4-31.7h4.4l5.9,23.7l5.7-23.7h4.4L415.1,69.5z"/>
</g>
<g>
	<g>
		<path class="st2" d="M250.6,18.6c-0.2,0-0.3,0-0.5-0.1c-0.8-0.2-1.2-0.8-0.9-1.4l1.2-2.4c0.3-0.6,1.1-0.9,1.9-0.7
			c0.8,0.2,1.2,0.8,0.9,1.4l-1.2,2.4C251.7,18.3,251.2,18.6,250.6,18.6z"/>
	</g>
	<g>
		<path class="st2" d="M221.5,77.7c-0.2,0-0.3,0-0.5-0.1c-0.8-0.2-1.2-0.8-0.9-1.4l2.4-4.9c0.3-0.6,1.1-0.9,1.9-0.7
			c0.8,0.2,1.2,0.8,0.9,1.4l-2.4,4.9C222.7,77.4,222.2,77.7,221.5,77.7z M226.4,67.8c-0.2,0-0.3,0-0.5-0.1c-0.8-0.2-1.2-0.8-0.9-1.4
			l2.4-4.9c0.3-0.6,1.1-0.9,1.9-0.7c0.8,0.2,1.2,0.8,0.9,1.4l-2.4,4.9C227.6,67.5,227,67.8,226.4,67.8z M231.2,58
			c-0.2,0-0.3,0-0.5-0.1c-0.8-0.2-1.2-0.8-0.9-1.4l2.4-4.9c0.3-0.6,1.1-0.9,1.9-0.7c0.8,0.2,1.2,0.8,0.9,1.4l-2.4,4.9
			C232.4,57.7,231.8,58,231.2,58z M236,48.1c-0.2,0-0.3,0-0.5-0.1c-0.8-0.2-1.2-0.8-0.9-1.4l2.4-4.9c0.3-0.6,1.1-0.9,1.9-0.7
			c0.8,0.2,1.2,0.8,0.9,1.4l-2.4,4.9C237.2,47.8,236.7,48.1,236,48.1z M240.9,38.3c-0.2,0-0.3,0-0.5-0.1c-0.8-0.2-1.2-0.8-0.9-1.4
			l2.4-4.9c0.3-0.6,1.1-0.9,1.9-0.7c0.8,0.2,1.2,0.8,0.9,1.4l-2.4,4.9C242.1,38,241.5,38.3,240.9,38.3z M245.7,28.4
			c-0.2,0-0.3,0-0.5-0.1c-0.8-0.2-1.2-0.8-0.9-1.4l2.4-4.9c0.3-0.6,1.1-0.9,1.9-0.7c0.8,0.2,1.2,0.8,0.9,1.4l-2.4,4.9
			C246.9,28.1,246.3,28.4,245.7,28.4z"/>
	</g>
	<g>
		<path class="st2" d="M217.9,85c-0.2,0-0.3,0-0.5-0.1c-0.8-0.2-1.2-0.8-0.9-1.4l1.2-2.4c0.3-0.6,1.1-0.9,1.9-0.7
			c0.8,0.2,1.2,0.8,0.9,1.4l-1.2,2.4C219.1,84.7,218.5,85,217.9,85z"/>
	</g>
</g>
</svg>
