<svg height="480pt" viewBox="0 -4 480 480" width="480pt" xmlns="http://www.w3.org/2000/svg"><path d="m160 336.011719h24c4.417969 0 8-3.582031 8-8 0-4.421875-3.582031-8-8-8h-24c-4.417969 0-8 3.578125-8 8 0 4.417969 3.582031 8 8 8zm0 0"/><path d="m432 72.011719h-16.40625c-4.105469-40.886719-38.511719-72.011719-79.601562-72.011719-41.089844 0-75.496094 31.125-79.601563 72.011719h-32.390625c-.207031.027343-.414062.070312-.617188.125-3.933593-27.574219-27.527343-48.078125-55.382812-48.125h-104c-13.253906 0-24 10.742187-24 24 0 13.253906 10.746094 24 24 24h48v16h-48c-13.253906 0-24 10.742187-24 24 0 13.253906 10.746094 24 24 24h104c27.855469-.050781 51.449219-20.554688 55.382812-48.128907.203126.054688.410157.097657.617188.128907h32.40625c4.105469 40.882812 38.511719 72.007812 79.601562 72.007812 41.089844 0 75.496094-31.125 79.601563-72.007812h16.390625c17.671875 0 32 14.324219 32 32v192c-.054688 14.546875-9.914062 27.226562-24 30.863281v-17.601562c.027344-10.613282-4.195312-20.796876-11.71875-28.28125l-3.121094-3.132813.734375-2.21875c4.238281-12.785156 4.050781-26.628906-.535156-39.292969l-.871094-2.402344-17.289062-47.597656c-5.769531-15.796875-20.78125-26.3125-37.597657-26.335937h-120.464843c-18.179688-.023438-35.6875 6.851562-48.992188 19.238281l-45.601562 42.328125-45.6875 42.433594h-18.457031c-7.910157.011719-15.785157 1.0625-23.421876 3.125l-.351562.097656c-6.613281 1.800781-12.996094 4.351563-19.023438 7.609375-.464843.246094-.929687.511719-1.394531.796875-2.878906 1.597656-5.667969 3.34375-8.359375 5.242187-2.683594 1.929688-5.257812 4.015626-7.703125 6.238282-1.167969 1.050781-2.242187 2.191406-3.351562 3.296875-1.113281 1.105469-2.257813 2.230469-3.320313 3.425781-1.488281 1.644531-2.863281 3.367188-4.226562 5.109375-.503906.648437-1.015625 1.296875-1.503906 1.96875-1.550782 2.113281-3 4.28125-4.367188 6.511719-.09375.167968-.222656.3125-.320312.480468-.09375.167969-.0625.167969-.101563.246094-8.414063 13.964844-12.890625 29.945313-12.953125 46.25v61.601563c0 13.253906 10.746094 24 24 24h20.320312c9.066407 10.175781 22.046876 15.996093 35.679688 15.996093s26.613281-5.820312 35.679688-15.996093h208.640624c9.066407 10.175781 22.046876 15.996093 35.679688 15.996093s26.613281-5.820312 35.679688-15.996093h20.320312c13.253906 0 24-10.746094 24-24v-72.722657c23.066406-3.917968 39.957031-23.882812 40-47.277343v-192c-.027344-26.5-21.5-47.976563-48-48zm-320 48h-48c-4.417969 0-8-3.582031-8-8 0-4.421875 3.582031-8 8-8h48zm0-64h-48c-4.417969 0-8-3.582031-8-8 0-4.421875 3.582031-8 8-8h48zm56 64h-8v-8c0-4.421875-3.582031-8-8-8s-8 3.578125-8 8v8h-16v-80h16v40c0 4.417969 3.582031 8 8 8s8-3.582031 8-8v-40h8c22.089844 0 40 17.90625 40 40 0 22.089843-17.910156 40-40 40zm168 24c-35.347656 0-64-28.65625-64-64 0-35.347657 28.652344-64 64-64s64 28.652343 64 64c-.039062 35.328125-28.671875 63.957031-64 64zm74.800781 115.542969c.351563 1.101562.640625 2.214843.902344 3.34375.191406.800781.441406 1.597656.585937 2.457031.320313 1.953125.511719 3.929687.566407 5.910156 0 .320313.082031.640625.082031.960937.019531 2.292969-.136719 4.585938-.472656 6.855469-.113282.761719-.335938 1.503907-.480469 2.265625-.25 1.230469-.535156 2.453125-.886719 3.671875l-20-9.027343c-1.164062-.785157-1.824218-2.128907-1.738281-3.53125.089844-1.398438.914063-2.648438 2.167969-3.28125zm-98.800781 28.457031v-96h16v158.855469c-18.421875 8.054687-33.144531 22.738281-41.246094 41.144531h-29.210937c19.78125-25.285157 30.503906-56.46875 30.457031-88.570313v-7.429687h16c4.417969 0 8-3.582031 8-8zm-144-40v-1.082031l43.03125-39.953126c10.347656-9.636718 23.964844-14.984374 38.105469-14.964843h46.863281v88h-128zm-16 17.078125v14.921875h-17.902344zm-32 30.921875h152v7.429687c.054688 33.007813-12.679688 64.75-35.527344 88.570313h-83.199218c-6.859376-15.597657-18.515626-28.597657-33.273438-37.105469zm-82.398438 22.199219c1.0625-1.097657 2.117188-2.199219 3.246094-3.199219 1.910156-1.726563 3.910156-3.347657 5.992188-4.859375.113281-.078125.214844-.183594.335937-.261719l.070313-.046875c2.878906-2.03125 5.894531-3.851562 9.027344-5.457031.398437-.199219.796874-.441407 1.191406-.640625 2.851562-1.382813 5.792968-2.582032 8.800781-3.59375.75-.253906 1.488281-.542969 2.238281-.796875l.207032-.058594-2.328126 14.023437c-.644531 3.878907-4.007812 6.710938-7.933593 6.691407h-22.617188c.566407-.617188 1.160157-1.210938 1.769531-1.800781zm-21.601562 52.199218c.015625-11.980468 2.925781-23.785156 8.480469-34.398437h33.96875c11.742187.027343 21.769531-8.46875 23.671875-20.058594l3.253906-19.558594c1.679688-.113281 3.335938-.382812 5.03125-.382812h13.59375v51.78125c-32.589844-10.523438-68.238281 1.351562-88 29.320312zm64 85.601563c-17.671875 0-32-14.328125-32-32 0-17.675781 14.328125-32 32-32s32 14.324219 32 32c0 17.671875-14.328125 32-32 32zm280 0c-17.671875 0-32-14.328125-32-32 0-17.675781 14.328125-32 32-32s32 14.324219 32 32c0 17.671875-14.328125 32-32 32zm64-24c0 4.417969-3.582031 8-8 8h-10.800781c7.113281-19.90625.371093-42.125-16.609375-54.714844-16.980469-12.589844-40.199219-12.589844-57.179688 0-16.980468 12.589844-23.722656 34.808594-16.609375 54.714844h-189.601562c7.113281-19.90625.371093-42.125-16.609375-54.714844-16.980469-12.589844-40.199219-12.589844-57.179688 0-16.980468 12.589844-23.722656 34.808594-16.609375 54.714844h-10.800781c-4.417969 0-8-3.582031-8-8v-5.601563c-.542969-34.132812 25.222656-62.953125 59.199219-66.230468 28.773437-2.0625 55.390625 15.316406 65.082031 42.484374 1.128906 3.199219 4.152344 5.339844 7.542969 5.339844h144.359375c3.390625 0 6.414062-2.140625 7.542968-5.339844 9.699219-27.160156 36.304688-44.53125 65.074219-42.476562 33.972657 3.273438 59.734375 32.09375 59.199219 66.222656zm0-54.898438c-17.953125-25.566406-49.457031-37.914062-80-31.359375v-153.742187h25.601562c10.085938.019531 19.09375 6.324219 22.558594 15.796875l13.289063 36.539062-21.042969 10.519532c-6.589844 3.289062-10.835938 9.941406-11.039062 17.304687-.203126 7.367187 3.664062 14.246094 10.066406 17.894531.21875.128906.445312.242188.679687.34375l27.277344 12.320313 5.601563 5.597656c4.472656 4.507813 6.988281 10.589844 7.007812 16.9375zm0 0"/><path d="m360 72.011719h-6.238281l6.078125-30.402344c.664062-3.324219-.839844-6.710937-3.753906-8.441406-2.917969-1.734375-6.609376-1.441407-9.214844.730469l-48 40c-2.558594 2.164062-3.5 5.691406-2.355469 8.84375 1.144531 3.152343 4.132813 5.253906 7.484375 5.269531h8v32c0 3.234375 1.949219 6.148437 4.9375 7.386719 2.988281 1.238281 6.429688.554687 8.71875-1.734376l40-40c2.285156-2.285156 2.972656-5.726562 1.734375-8.714843s-4.15625-4.9375-7.390625-4.9375zm-32 28.6875v-20.6875c0-2.664063-1.324219-5.15625-3.535156-6.640625l15.246094-12.707032-3.550782 17.746094c-.773437 3.847656 1.359375 7.683594 5.03125 9.0625zm0 0"/></svg>