<?xml version="1.0" encoding="utf-8"?>
<!-- Generator: Adobe Illustrator 25.0.0, SVG Export Plug-In . SVG Version: 6.00 Build 0)  -->
<svg version="1.1" id="Layer_1" xmlns="http://www.w3.org/2000/svg" xmlns:xlink="http://www.w3.org/1999/xlink" x="0px" y="0px"
	 viewBox="0 0 59.3 59.3" style="enable-background:new 0 0 59.3 59.3;" xml:space="preserve">
<style type="text/css">
	.st0{fill:#2B1466;stroke:#FFFFFF;stroke-miterlimit:10;}
</style>
<g id="environment" transform="translate(0)">
	<path id="Path_165" class="st0" d="M51.8,1.7c0-1-0.8-1.7-1.7-1.7c-8.9,0-17,5.4-20.5,13.6C26.2,5.4,18.1,0,9.2,0
		c-1,0-1.7,0.8-1.7,1.7c0,11.6,8.9,21.2,20.5,22.1v11.4c0,1,0.8,1.7,1.8,1.7c0.9,0,1.7-0.8,1.7-1.7V23.9
		C42.9,22.9,51.8,13.3,51.8,1.7z M11,3.6c8.9,0.9,15.9,7.9,16.8,16.8C18.9,19.5,11.9,12.5,11,3.6z M31.5,20.4
		c0.9-8.9,7.9-15.9,16.8-16.8C47.4,12.5,40.4,19.5,31.5,20.4z"/>
	<path id="Path_166" class="st0" d="M18.8,34.9c-2.2-2.2-5.6-2.2-7.9-0.2v-7c0-5.1-4.1-9.2-9.2-9.2l0,0c-1,0-1.7,0.8-1.7,1.7v22.3
		c0,0.5,0.2,0.9,0.5,1.2l10.7,10.7v3c0,1,0.8,1.7,1.7,1.7h13c1,0,1.7-0.8,1.7-1.7v-9.9c0-2.4-1-4.8-2.7-6.5L18.8,34.9z M24.2,55.8
		h-9.5v-2c0-0.5-0.2-0.9-0.5-1.2L3.5,41.9V22.3c2.4,0.8,4,3,4,5.4v11.2c0,0.5,0.2,0.9,0.5,1.2l7.4,7.4c0.7,0.7,1.8,0.6,2.5,0
		c0.6-0.7,0.6-1.7,0-2.4l-4.6-4.6c-0.9-0.9-0.9-2.3,0-3.1s2.3-0.9,3.1,0l6.2,6.2c1.1,1.1,1.7,2.5,1.7,4L24.2,55.8L24.2,55.8z"/>
	<path id="Path_167" class="st0" d="M57.5,18.6L57.5,18.6c-5.1,0-9.2,4.1-9.2,9.2v7c-2.2-2.1-5.7-2-7.9,0.2l-6.2,6.2
		c-1.7,1.7-2.7,4.1-2.7,6.5v9.9c0,1,0.8,1.7,1.7,1.7h13c1,0,1.7-0.8,1.7-1.7v-3l10.7-10.7c0.3-0.3,0.5-0.8,0.5-1.2V20.3
		C59.3,19.4,58.5,18.6,57.5,18.6z M55.8,41.9L45.2,52.6c-0.3,0.3-0.5,0.8-0.5,1.2v2h-9.5v-8.2c0-1.5,0.6-3,1.7-4l6.2-6.2
		c0.9-0.9,2.3-0.9,3.1,0s0.9,2.3,0,3.1l-4.6,4.6c-0.7,0.7-0.6,1.8,0,2.5c0.7,0.6,1.7,0.6,2.4,0l7.4-7.4c0.3-0.3,0.5-0.8,0.5-1.2
		V27.8c0-2.5,1.6-4.7,4-5.4L55.8,41.9L55.8,41.9z"/>
</g>
</svg>
