<svg id="ev" xmlns="http://www.w3.org/2000/svg" width="73.759" height="73.759" viewBox="0 0 73.759 73.759">
  <path id="Path_2" data-name="Path 2" d="M63.675,8.644h-34V5.762a1.441,1.441,0,0,0-1.441-1.441H23.914a2.884,2.884,0,0,1-2.881-2.881A1.441,1.441,0,0,0,19.592,0H10.949A1.441,1.441,0,0,0,9.508,1.441V4.322H1.441a1.441,1.441,0,1,0,0,2.881H9.508v5.762H1.441a1.441,1.441,0,0,0,0,2.881H9.508v2.881a1.441,1.441,0,0,0,1.441,1.441h8.644a1.441,1.441,0,0,0,1.441-1.441,2.884,2.884,0,0,1,2.881-2.881h4.322a1.441,1.441,0,0,0,1.441-1.441V11.525h34a7.2,7.2,0,1,1,0,14.406H22.966a5.757,5.757,0,0,0-5.592,4.374L14.138,43.651H10.949a5.769,5.769,0,0,0-5.762,5.762v9.508a5.769,5.769,0,0,0,5.762,5.762H13.83v7.635a1.441,1.441,0,0,0,1.441,1.441h8.644a1.441,1.441,0,0,0,1.441-1.441V64.684H49.269v7.635a1.441,1.441,0,0,0,1.441,1.441h8.644a1.441,1.441,0,0,0,1.441-1.441V64.684h2.881a5.769,5.769,0,0,0,5.762-5.762V49.413a5.769,5.769,0,0,0-5.762-5.762H60.486L57.247,30.3a5.776,5.776,0,0,0-.6-1.483h7.027a10.084,10.084,0,0,0,0-20.169ZM26.8,12.966H23.914a5.773,5.773,0,0,0-5.58,4.322H12.389V2.881h5.945A5.773,5.773,0,0,0,23.914,7.2H26.8ZM22.474,70.878H16.711V64.684h5.762Zm35.439,0H52.15V64.684h5.762ZM54.45,30.984l3.072,12.666H43.795a1.441,1.441,0,0,0,0,2.881h19.88a2.884,2.884,0,0,1,2.881,2.881v9.508A2.884,2.884,0,0,1,63.675,61.8H10.949a2.884,2.884,0,0,1-2.881-2.881V49.413a2.884,2.884,0,0,1,2.881-2.881h19.88a1.441,1.441,0,1,0,0-2.881H17.1l3.07-12.656a2.877,2.877,0,0,1,2.795-2.182H51.658A2.874,2.874,0,0,1,54.45,30.984Z" fill="#2b1466"/>
  <path id="Path_3" data-name="Path 3" d="M82.512,366H78.191a1.441,1.441,0,0,0,0,2.881h4.322a1.441,1.441,0,0,0,0-2.881Z" transform="translate(-65.693 -313.274)" fill="#2b1466"/>
  <path id="Path_4" data-name="Path 4" d="M393.191,368.881h4.322a1.441,1.441,0,1,0,0-2.881h-4.322a1.441,1.441,0,1,0,0,2.881Z" transform="translate(-335.314 -313.274)" fill="#2b1466"/>
  <path id="Path_5" data-name="Path 5" d="M186,367.441a1.441,1.441,0,0,0,1.441,1.441h18.152a1.441,1.441,0,1,0,0-2.881H187.441A1.441,1.441,0,0,0,186,367.441Z" transform="translate(-159.205 -313.274)" fill="#2b1466"/>
  <circle id="Ellipse_1" data-name="Ellipse 1" cx="1.5" cy="1.5" r="1.5" transform="translate(35.812 43.548)" fill="#2b1466"/>
</svg>
