<?xml version="1.0" encoding="utf-8"?>
<!-- Generator: Adobe Illustrator 25.0.0, SVG Export Plug-In . SVG Version: 6.00 Build 0)  -->
<svg version="1.1" id="finance" xmlns="http://www.w3.org/2000/svg" xmlns:xlink="http://www.w3.org/1999/xlink" x="0px" y="0px"
	 viewBox="0 0 65 65" style="enable-background:new 0 0 65 65;" xml:space="preserve">
<style type="text/css">
	.st0{fill:#2B1466;stroke:#FFFFFF;stroke-miterlimit:10;}
</style>
<g id="Group_145">
	<g id="Group_144">
		<path id="Path_188" class="st0" d="M32.5,0C14.6,0,0,14.6,0,32.5S14.6,65,32.5,65S65,50.4,65,32.5C65,14.6,50.4,0,32.5,0z
			 M32.5,60.9c-15.7,0-28.4-12.7-28.4-28.4S16.8,4.1,32.5,4.1s28.4,12.7,28.4,28.4l0,0C60.9,48.2,48.2,60.9,32.5,60.9z"/>
	</g>
</g>
<g id="Group_147" transform="translate(20.311 16.25)">
	<g id="Group_146">
		<path id="Path_189" class="st0" d="M22.3,8.1h-2.2c-0.3-1.5-1-2.9-1.9-4.1h4.1c1.1,0,2-0.9,2-2s-0.9-2-2-2c0,0,0,0,0,0H2
			C0.9,0,0,0.9,0,2c0,1.1,0.9,2,2,2h8.1c2.6,0,4.9,1.6,5.7,4.1H2c-1.1,0-2,0.9-2,2c0,1.1,0.9,2,2,2h13.8c-0.9,2.4-3.1,4.1-5.7,4.1H2
			c-0.8,0-1.6,0.5-1.9,1.3c-0.2,0.5-0.2,1.1,0,1.6c0.1,0.2,0.3,0.5,0.4,0.7L16.8,36c0.8,0.8,2.1,0.8,2.9,0c0.8-0.8,0.8-2.1,0-2.9
			c0,0,0,0,0,0L6.9,20.3h3.2c4.8,0,9-3.4,9.9-8.1h2.2c1.1,0,2-0.9,2-2S23.5,8.1,22.3,8.1C22.3,8.1,22.3,8.1,22.3,8.1L22.3,8.1z"/>
	</g>
</g>
</svg>
