<svg xmlns="http://www.w3.org/2000/svg" width="73.232" height="51.263" viewBox="0 0 73.232 51.263">
  <g id="freight" transform="translate(0 -76.8)">
    <g id="Group_139" data-name="Group 139" transform="translate(0 76.8)">
      <g id="Group_138" data-name="Group 138" transform="translate(0 0)">
        <path id="Path_168" data-name="Path 168" d="M97.529,349.867a3.662,3.662,0,1,0,3.662,3.662A3.662,3.662,0,0,0,97.529,349.867Zm0,4.882a1.22,1.22,0,1,1,1.22-1.22A1.22,1.22,0,0,1,97.529,354.749Z" transform="translate(-80.441 -310.81)" fill="#2b1466"/>
        <path id="Path_169" data-name="Path 169" d="M370.595,349.867a3.662,3.662,0,1,0,3.662,3.662A3.662,3.662,0,0,0,370.595,349.867Zm0,4.882a1.22,1.22,0,1,1,1.22-1.22A1.22,1.22,0,0,1,370.595,354.749Z" transform="translate(-314.45 -310.81)" fill="#2b1466"/>
        <path id="Path_170" data-name="Path 170" d="M72.3,98.484l-8.408-9.469a3.661,3.661,0,0,0-2.745-1.23H50.042V80.462A3.666,3.666,0,0,0,46.38,76.8H3.662A3.666,3.666,0,0,0,0,80.462V112.2a1.22,1.22,0,0,0,1.221,1.221h1.22v3.662A3.666,3.666,0,0,0,6.1,120.739H8.641a8.532,8.532,0,0,0,16.893,0H47.7a8.532,8.532,0,0,0,16.893,0h4.979a3.666,3.666,0,0,0,3.662-3.662v-16.16A3.658,3.658,0,0,0,72.3,98.484ZM2.441,110.975V80.462a1.222,1.222,0,0,1,1.22-1.22H46.38a1.222,1.222,0,0,1,1.22,1.22v30.513Zm6.2,7.323H6.1a1.222,1.222,0,0,1-1.22-1.22v-3.662H11.12A8.521,8.521,0,0,0,8.641,118.3Zm8.446,7.323a6.1,6.1,0,1,1,6.1-6.1A6.1,6.1,0,0,1,17.088,125.621ZM29.293,118.3H25.534a8.521,8.521,0,0,0-2.478-4.882h6.238Zm10.985,0H31.734v-4.882h8.544Zm7.421,0h-4.98v-4.882h7.458A8.521,8.521,0,0,0,47.7,118.3Zm8.446,7.323a6.1,6.1,0,1,1,6.1-6.1A6.1,6.1,0,0,1,56.145,125.621Zm14.646-8.544a1.222,1.222,0,0,1-1.22,1.22h-4.98a8.55,8.55,0,0,0-8.446-7.323h-6.1V90.226h4.882v12.205a3.666,3.666,0,0,0,3.662,3.662H70.791Zm0-13.426H58.586a1.222,1.222,0,0,1-1.22-1.22V90.226h3.784a1.223,1.223,0,0,1,.918.408l8.411,9.472a1.224,1.224,0,0,1,.313.812v2.734Z" transform="translate(0 -76.8)" fill="#2b1466"/>
      </g>
    </g>
  </g>
</svg>
