<svg id="nmt" xmlns="http://www.w3.org/2000/svg" width="78.408" height="47.763" viewBox="0 0 78.408 47.763">
  <g id="Group_10" data-name="Group 10" transform="translate(0 0)">
    <g id="Group_9" data-name="Group 9" transform="translate(0 0)">
      <path id="Path_30" data-name="Path 30" d="M63.742,118.484a14.776,14.776,0,0,0-2.135.157l-4.026-15.353h6.352a3.763,3.763,0,0,1,3.76,3.758,1.615,1.615,0,0,0,3.231,0,7,7,0,0,0-6.991-6.99H55.487a1.616,1.616,0,0,0-1.563,2.026l1.677,6.4H53.952a1.615,1.615,0,1,0,0,3.231h.4L39.67,130.172l-9.33-18.462H43.432a1.615,1.615,0,1,0,0-3.231H28.707l-2.623-5.19h2.659a1.615,1.615,0,1,0,0-3.231H18.173a1.615,1.615,0,0,0,0,3.231h4.292l3.429,6.786-5.441,9.6a14.668,14.668,0,1,0,8.794,15.094h9.137l1.333,2.573a1.615,1.615,0,0,0,.28,3.205h4.725a1.615,1.615,0,1,0,0-3.231H43.342l-2.061-3.977,15.67-19.711,1.529,5.833a14.669,14.669,0,1,0,5.261-.975ZM21.657,124.1a11.481,11.481,0,0,1,4.331,7.435H17.442Zm-6.988,20.488a11.437,11.437,0,1,1,4.178-22.083l-5.584,9.849a1.616,1.616,0,0,0,1.405,2.412h11.32A11.452,11.452,0,0,1,14.668,144.588Zm14.575-13.053a14.717,14.717,0,0,0-5.981-10.268l4.382-7.729,9.094,18Zm34.5,13.053a11.438,11.438,0,0,1-4.435-21.981l2.872,10.953a1.616,1.616,0,0,0,3.125-.82l-2.871-10.95a11.436,11.436,0,1,1,1.308,22.8Z" transform="translate(0 -100.057)" fill="#2b1466"/>
    </g>
  </g>
  <g id="Group_12" data-name="Group 12" transform="translate(46.931 8.421)">
    <g id="Group_11" data-name="Group 11">
      <path id="Path_31" data-name="Path 31" d="M308.653,155.047h-.582a1.615,1.615,0,1,0,0,3.231h.582a1.615,1.615,0,1,0,0-3.231Z" transform="translate(-306.455 -155.047)" fill="#2b1466"/>
    </g>
  </g>
</svg>
