<svg xmlns="http://www.w3.org/2000/svg" width="52.252" height="65.315" viewBox="0 0 52.252 65.315">
  <g id="others" transform="translate(-64 -16)">
    <path id="Path_195" data-name="Path 195" d="M102.1,16H69.443A5.449,5.449,0,0,0,64,21.443V75.872a5.449,5.449,0,0,0,5.443,5.443h41.366a5.449,5.449,0,0,0,5.443-5.443V30.152a1.089,1.089,0,0,0-.319-.77L102.87,16.319A1.089,1.089,0,0,0,102.1,16Zm11.974,59.872a3.27,3.27,0,0,1-3.266,3.266H69.443a3.27,3.27,0,0,1-3.266-3.266V21.443a3.27,3.27,0,0,1,3.266-3.266h31.569V25.8a5.449,5.449,0,0,0,5.443,5.443h7.62ZM103.189,19.717l9.346,9.346h-6.081a3.27,3.27,0,0,1-3.266-3.266Z" fill="#2b1466"/>
    <path id="Path_196" data-name="Path 196" d="M171.266,232a3.266,3.266,0,1,0,3.266,3.266A3.266,3.266,0,0,0,171.266,232Zm0,4.354a1.089,1.089,0,1,1,1.089-1.089A1.089,1.089,0,0,1,171.266,236.354Z" transform="translate(-89.848 -186.608)" fill="#2b1466"/>
    <path id="Path_197" data-name="Path 197" d="M235.266,232a3.266,3.266,0,1,0,3.266,3.266A3.266,3.266,0,0,0,235.266,232Zm0,4.354a1.089,1.089,0,1,1,1.089-1.089A1.089,1.089,0,0,1,235.266,236.354Z" transform="translate(-145.14 -186.608)" fill="#2b1466"/>
    <path id="Path_198" data-name="Path 198" d="M299.266,232a3.266,3.266,0,1,0,3.266,3.266A3.266,3.266,0,0,0,299.266,232Zm0,4.354a1.089,1.089,0,1,1,1.089-1.089A1.089,1.089,0,0,1,299.266,236.354Z" transform="translate(-200.431 -186.608)" fill="#2b1466"/>
  </g>
</svg>
