<svg xmlns="http://www.w3.org/2000/svg" width="71.074" height="71.074" viewBox="0 0 71.074 71.074">
  <g id="parking" transform="translate(-16 -16)">
    <path id="Path_181" data-name="Path 181" d="M33.769,56.275H20.738A4.744,4.744,0,0,1,16,51.537v-30.8A4.744,4.744,0,0,1,20.738,16h30.8a4.744,4.744,0,0,1,4.738,4.738V40.876H53.906V20.738a2.372,2.372,0,0,0-2.369-2.369h-30.8a2.372,2.372,0,0,0-2.369,2.369v30.8a2.372,2.372,0,0,0,2.369,2.369h13.03Z" fill="#2b1466"/>
    <path id="Path_182" data-name="Path 182" d="M72.292,78.8H65.185A1.185,1.185,0,0,1,64,77.614V49.185A1.185,1.185,0,0,1,65.185,48H79.4a10.661,10.661,0,0,1,0,21.322H73.477v8.292A1.185,1.185,0,0,1,72.292,78.8ZM66.369,76.43h4.738V68.138a1.185,1.185,0,0,1,1.185-1.185H79.4a8.292,8.292,0,1,0,0-16.584H66.369ZM79.4,62.215H72.292a1.185,1.185,0,0,1-1.185-1.185V56.292a1.185,1.185,0,0,1,1.185-1.185H79.4a3.554,3.554,0,1,1,0,7.107Zm-5.923-2.369H79.4a1.185,1.185,0,0,0,0-2.369H73.477Z" transform="translate(-40.893 -27.262)" fill="#2b1466"/>
    <path id="Path_183" data-name="Path 183" d="M167.328,219.3a5.191,5.191,0,0,0-3.536-1.528l-4.844-14.533a4.733,4.733,0,0,0-4.5-3.24H126.407a4.733,4.733,0,0,0-4.5,3.24l-4.844,14.533A5.227,5.227,0,0,0,112,223v8.986a4.744,4.744,0,0,0,4.738,4.738h8.292v4.738h-7.107v-2.369h-2.369v2.369a2.372,2.372,0,0,0,2.369,2.369h7.107a2.372,2.372,0,0,0,2.369-2.369v-4.738H153.46v4.738a2.372,2.372,0,0,0,2.369,2.369h7.107a2.372,2.372,0,0,0,2.369-2.369v-4.888a4.747,4.747,0,0,0,3.554-4.588V223a5.2,5.2,0,0,0-1.531-3.7Zm-40.921-16.931h28.045a2.367,2.367,0,0,1,2.248,1.62l.25.749H123.91l.25-.749A2.367,2.367,0,0,1,126.407,202.369Zm-3.287,4.738h34.619l3.554,10.661H119.566Zm39.816,34.353h-7.107v-4.738h7.107v4.738Zm3.554-9.477a2.372,2.372,0,0,1-2.369,2.369H116.738a2.372,2.372,0,0,1-2.369-2.369V223a2.86,2.86,0,0,1,2.86-2.86h46.4a2.86,2.86,0,0,1,2.86,2.86Z" transform="translate(-81.785 -156.755)" fill="#2b1466"/>
    <path id="Path_184" data-name="Path 184" d="M148.738,352a4.738,4.738,0,1,0,4.738,4.738A4.738,4.738,0,0,0,148.738,352Zm0,7.107a2.369,2.369,0,1,1,2.369-2.369A2.369,2.369,0,0,1,148.738,359.107Z" transform="translate(-109.047 -286.248)" fill="#2b1466"/>
    <path id="Path_185" data-name="Path 185" d="M404.738,352a4.738,4.738,0,1,0,4.738,4.738A4.738,4.738,0,0,0,404.738,352Zm0,7.107a2.369,2.369,0,1,1,2.369-2.369A2.369,2.369,0,0,1,404.738,359.107Z" transform="translate(-327.141 -286.248)" fill="#2b1466"/>
    <path id="Path_186" data-name="Path 186" d="M224,360h23.691v2.369H224Z" transform="translate(-177.201 -293.063)" fill="#2b1466"/>
    <path id="Path_187" data-name="Path 187" d="M224,392h23.691v2.369H224Z" transform="translate(-177.201 -320.325)" fill="#2b1466"/>
  </g>
</svg>
