<svg xmlns="http://www.w3.org/2000/svg" width="67.003" height="67.003" viewBox="0 0 67.003 67.003">
  <g id="safety" transform="translate(0 -0.001)">
    <g id="Group_149" data-name="Group 149" transform="translate(24.376 0.001)">
      <g id="Group_148" data-name="Group 148">
        <path id="Path_190" data-name="Path 190" d="M216.137,21.218h-10.7L216.927,9.724a1.117,1.117,0,0,0,0-1.579L209.11.328a1.117,1.117,0,0,0-1.579,0L194.92,12.939l-2.1-2.1a3.43,3.43,0,0,0-4.737,0l-6.892,6.892a3.35,3.35,0,0,0,0,4.737l.982.982-6.565,6.565a3.35,3.35,0,0,0,0,4.737l6.891,6.892a3.35,3.35,0,0,0,4.738,0h0l6.565-6.565.98.982a3.35,3.35,0,0,0,4.738,0h0l2.561-2.561h14.055a1.117,1.117,0,0,0,1.117-1.117V22.335A1.117,1.117,0,0,0,216.137,21.218ZM208.32,2.7l6.238,6.238L202.737,20.756,196.5,14.518ZM185.659,40.067a1.14,1.14,0,0,1-1.579,0l-6.891-6.892a1.117,1.117,0,0,1,0-1.579l6.564-6.565,8.471,8.471Zm12.284-5.584a1.14,1.14,0,0,1-1.579,0L182.772,20.891a1.117,1.117,0,0,1,0-1.579l6.892-6.892a1.117,1.117,0,0,1,1.579,0l13.591,13.593a1.117,1.117,0,0,1,0,1.579Zm17.078-3.215h-10.7l2.1-2.1a3.35,3.35,0,0,0,0-4.737l-.982-.982h9.588Z" transform="translate(-174.627 -0.001)" fill="#2b1466"/>
      </g>
    </g>
    <g id="Group_151" data-name="Group 151" transform="translate(35.735 15.635)">
      <g id="Group_150" data-name="Group 150">
        <path id="Path_191" data-name="Path 191" d="M271.306,122.378l-10.051-10.051a1.117,1.117,0,0,0-1.579,0l-3.35,3.35a1.117,1.117,0,0,0,0,1.579l10.051,10.051a1.117,1.117,0,0,0,1.579,0l3.35-3.35A1.117,1.117,0,0,0,271.306,122.378Zm-4.14,2.561-8.471-8.471,1.771-1.771,8.471,8.471Z" transform="translate(-256 -112.001)" fill="#2b1466"/>
      </g>
    </g>
    <g id="Group_153" data-name="Group 153" transform="translate(29.035 27.919)">
      <g id="Group_152" data-name="Group 152">
        <path id="Path_192" data-name="Path 192" d="M217.723,204.795l-4.467-4.467a1.117,1.117,0,0,0-1.579,0l-3.35,3.35a1.117,1.117,0,0,0,0,1.579l4.467,4.467a1.117,1.117,0,0,0,1.579,0l3.35-3.35A1.117,1.117,0,0,0,217.723,204.795Zm-4.14,2.561-2.888-2.888,1.771-1.771,2.888,2.888Z" transform="translate(-208 -200.001)" fill="#2b1466"/>
      </g>
    </g>
    <g id="Group_155" data-name="Group 155" transform="translate(0 33.502)">
      <g id="Group_154" data-name="Group 154">
        <path id="Path_193" data-name="Path 193" d="M33.174,254.845,18.657,240.328a1.117,1.117,0,0,0-1.579,0L5.256,252.149a3.35,3.35,0,0,0,0,4.737l.982.982L.327,263.779a1.117,1.117,0,0,0,0,1.579l7.817,7.817a1.117,1.117,0,0,0,1.579,0l5.911-5.911.98.982a3.35,3.35,0,0,0,4.738,0h0l11.822-11.822A1.117,1.117,0,0,0,33.174,254.845ZM8.933,270.806,2.7,264.568l5.121-5.121,6.238,6.238Zm10.84-4.14a1.14,1.14,0,0,1-1.579,0L6.836,255.307a1.117,1.117,0,0,1,0-1.579h0L17.867,242.7l12.938,12.938Z" transform="translate(0 -240.001)" fill="#2b1466"/>
      </g>
    </g>
    <g id="Group_157" data-name="Group 157" transform="translate(8.934 39.086)">
      <g id="Group_156" data-name="Group 156">
        <path id="Path_194" data-name="Path 194" d="M82.657,289.261l-8.934-8.934a1.117,1.117,0,0,0-1.579,0l-7.817,7.817a1.117,1.117,0,0,0,0,1.579l8.934,8.934a1.117,1.117,0,0,0,1.579,0l7.817-7.817A1.117,1.117,0,0,0,82.657,289.261Zm-8.607,7.028L66.7,288.934l6.238-6.238,7.355,7.355Z" transform="translate(-64 -280.001)" fill="#2b1466"/>
      </g>
    </g>
  </g>
</svg>
