<svg xmlns="http://www.w3.org/2000/svg" width="70.455" height="54.557" viewBox="0 0 70.455 54.557">
  <g id="shared_mobility" transform="translate(0 -57.745)">
    <path id="Path_171" data-name="Path 171" d="M163.279,342.884H182.89a1.975,1.975,0,0,0,1.868-1.334l1.44-4.2a1.975,1.975,0,0,0-1.868-2.616H161.839a1.975,1.975,0,0,0-1.868,2.616l1.44,4.2a1.975,1.975,0,0,0,1.868,1.335Zm20.929-6.089-1.38,4.026H163.342l-1.38-4.026Z" transform="translate(-137.857 -238.857)" fill="#2b1466"/>
    <path id="Path_172" data-name="Path 172" d="M56.162,270.7a5.384,5.384,0,1,0,5.384-5.384,5.39,5.39,0,0,0-5.384,5.384Zm8.705,0a3.321,3.321,0,1,1-3.321-3.322A3.325,3.325,0,0,1,64.867,270.7Z" transform="translate(-48.431 -179.001)" fill="#2b1466"/>
    <path id="Path_173" data-name="Path 173" d="M388.187,270.7a5.384,5.384,0,1,0-5.384,5.384A5.39,5.39,0,0,0,388.187,270.7Zm-8.705,0a3.321,3.321,0,1,1,3.321,3.321A3.325,3.325,0,0,1,379.481,270.7Z" transform="translate(-325.463 -179.001)" fill="#2b1466"/>
    <path id="Path_174" data-name="Path 174" d="M67.723,82.773h.033a2.689,2.689,0,0,0,2.686-2.686v-2.3A2.689,2.689,0,0,0,67.756,75.1H61.293l-.875-1.714a1.031,1.031,0,0,0-1.837.937l3.259,6.387H31a8.916,8.916,0,0,0-17.714,0H8.615L14.3,69.571A4.7,4.7,0,0,1,18.5,67H51.955a4.7,4.7,0,0,1,4.2,2.572l.266.521a1.031,1.031,0,1,0,1.837-.937l-.266-.521a6.749,6.749,0,0,0-6.037-3.7H47.107L44.5,59.48a3.063,3.063,0,0,0-2.751-1.735H28.429a3.063,3.063,0,0,0-2.751,1.735l-2.605,5.457H18.5a6.749,6.749,0,0,0-6.037,3.7L9.163,75.1H2.7A2.689,2.689,0,0,0,.014,77.786v2.3A2.689,2.689,0,0,0,2.7,82.773h.033A7.419,7.419,0,0,0,0,88.52V108.67A3.635,3.635,0,0,0,3.631,112.3H9.264A3.635,3.635,0,0,0,12.9,108.67v-.331a5.124,5.124,0,0,0,.9.081h4.659a1.031,1.031,0,1,0,0-2.062H13.794a3.1,3.1,0,0,1-2.27-.992L3.2,96.374a4.251,4.251,0,0,1-1.135-2.9V88.52A5.355,5.355,0,0,1,5.24,83.631l1.929-.857H63.287l1.929.857a5.355,5.355,0,0,1,3.177,4.889v4.958a4.251,4.251,0,0,1-1.135,2.9l-8.326,8.992a3.1,3.1,0,0,1-2.27.992H23.243a1.031,1.031,0,1,0,0,2.062H56.661a5.125,5.125,0,0,0,.9-.081v.331a3.635,3.635,0,0,0,3.631,3.631h5.633a3.635,3.635,0,0,0,3.631-3.631V88.52a7.419,7.419,0,0,0-2.732-5.746Zm-40.184-22.4a.991.991,0,0,1,.89-.561H41.751a.991.991,0,0,1,.89.561l2.181,4.568H25.358Zm-17.528,46.4a5.133,5.133,0,0,0,.823.717v1.187a1.571,1.571,0,0,1-1.569,1.569H3.631a1.571,1.571,0,0,1-1.569-1.569V98.184ZM6.3,80.711H2.7a.624.624,0,0,1-.623-.623v-2.3a.624.624,0,0,1,.623-.623H8.11Zm13.118,0a2.908,2.908,0,0,1,5.441,0Zm7.588,0a4.976,4.976,0,0,0-9.735,0H15.361a6.857,6.857,0,0,1,13.557,0Zm37.149,0-1.811-3.548h5.411a.624.624,0,0,1,.623.623v2.3a.624.624,0,0,1-.623.623Zm4.237,27.959a1.571,1.571,0,0,1-1.569,1.569H61.191a1.571,1.571,0,0,1-1.569-1.569v-1.187a5.131,5.131,0,0,0,.822-.716l7.948-8.584Z" fill="#2b1466"/>
    <path id="Path_175" data-name="Path 175" d="M169.412,287.633a1.032,1.032,0,0,1-1.032-1.032v-2.919a1.032,1.032,0,0,1,2.065,0V286.6A1.032,1.032,0,0,1,169.412,287.633Z" transform="translate(-145.201 -193.943)" fill="#2b1466"/>
    <path id="Path_176" data-name="Path 176" d="M203.149,287.633a1.032,1.032,0,0,1-1.032-1.032v-2.919a1.032,1.032,0,0,1,2.065,0V286.6A1.032,1.032,0,0,1,203.149,287.633Z" transform="translate(-174.293 -193.943)" fill="#2b1466"/>
    <path id="Path_177" data-name="Path 177" d="M236.886,287.633a1.032,1.032,0,0,1-1.032-1.032v-2.919a1.032,1.032,0,0,1,2.065,0V286.6A1.032,1.032,0,0,1,236.886,287.633Z" transform="translate(-203.386 -193.943)" fill="#2b1466"/>
    <path id="Path_178" data-name="Path 178" d="M270.622,287.633a1.032,1.032,0,0,1-1.032-1.032v-2.919a1.032,1.032,0,0,1,2.065,0V286.6A1.032,1.032,0,0,1,270.622,287.633Z" transform="translate(-232.478 -193.943)" fill="#2b1466"/>
    <path id="Path_179" data-name="Path 179" d="M304.359,287.633a1.032,1.032,0,0,1-1.032-1.032v-2.919a1.032,1.032,0,0,1,2.065,0V286.6A1.032,1.032,0,0,1,304.359,287.633Z" transform="translate(-261.571 -193.943)" fill="#2b1466"/>
    <path id="Path_180" data-name="Path 180" d="M338.1,287.633a1.032,1.032,0,0,1-1.032-1.032v-2.919a1.032,1.032,0,0,1,2.065,0V286.6A1.032,1.032,0,0,1,338.1,287.633Z" transform="translate(-290.663 -193.943)" fill="#2b1466"/>
  </g>
</svg>
