<svg xmlns="http://www.w3.org/2000/svg" width="67.914" height="67.914" viewBox="0 0 67.914 67.914">
  <g id="transit" transform="translate(-767.563 -1232.642)">
    <path id="Path_6" data-name="Path 6" d="M67.819,19.622h-1.1V14.145a1.094,1.094,0,0,0-1.1-1.1h-5.8a7.678,7.678,0,0,0-7.345-5.477H45.911V4.286A3.29,3.29,0,0,0,42.625,1H27.289A3.29,3.29,0,0,0,24,4.286V7.572H17.431a7.678,7.678,0,0,0-7.345,5.477h-5.8a1.094,1.094,0,0,0-1.1,1.1v5.477H2.1a1.094,1.094,0,0,0-1.1,1.1V29.48a3.286,3.286,0,1,0,6.572,0V20.717a1.094,1.094,0,0,0-1.1-1.1h-1.1V15.24H9.763V59.056a1.094,1.094,0,0,0,1.1,1.1h2.191v5.477a3.29,3.29,0,0,0,3.286,3.286h6.572a3.29,3.29,0,0,0,3.286-3.286V60.151H43.72v5.477a3.29,3.29,0,0,0,3.286,3.286h6.572a3.29,3.29,0,0,0,3.286-3.286V60.151h2.191a1.094,1.094,0,0,0,1.1-1.1V15.24h4.382v4.382h-1.1a1.094,1.094,0,0,0-1.1,1.1V29.48a3.286,3.286,0,0,0,6.572,0V20.717A1.094,1.094,0,0,0,67.819,19.622ZM5.382,29.48a1.1,1.1,0,1,1-2.191,0V21.812H5.382Zm45.232.321L46.425,33.99,32.6,38.243H25.812L33.088,36a1.1,1.1,0,0,0,.452-.273l4.382-4.382L36.374,29.8,32.185,33.99,18.361,38.243h-.753l-5.654-1.884V18.526H57.96V36.359l-5.654,1.884H40.052L47.329,36a1.1,1.1,0,0,0,.452-.273l4.382-4.382ZM26.194,4.286a1.1,1.1,0,0,1,1.1-1.1H42.625a1.1,1.1,0,0,1,1.1,1.1V7.572H26.194ZM17.431,9.763H52.483A5.483,5.483,0,0,1,57.96,15.24v1.1H11.954v-1.1A5.483,5.483,0,0,1,17.431,9.763ZM24,65.628a1.1,1.1,0,0,1-1.1,1.1H16.336a1.1,1.1,0,0,1-1.1-1.1V60.151H24Zm30.671,0a1.1,1.1,0,0,1-1.1,1.1H47.007a1.1,1.1,0,0,1-1.1-1.1V60.151h8.763Zm1.1-7.668H11.954V38.667l5.131,1.71a1.1,1.1,0,0,0,.346.057H52.483a1.1,1.1,0,0,0,.346-.057l5.131-1.71V57.96ZM66.724,29.48a1.1,1.1,0,1,1-2.191,0V21.812h2.191Z" transform="translate(766.563 1231.642)" fill="#2b1466"/>
    <path id="Path_7" data-name="Path 7" d="M18.477,40a5.477,5.477,0,1,0,5.477,5.477A5.483,5.483,0,0,0,18.477,40Zm0,8.763a3.286,3.286,0,1,1,3.286-3.286A3.29,3.29,0,0,1,18.477,48.763Z" transform="translate(767.708 1235.362)" fill="#2b1466"/>
    <path id="Path_8" data-name="Path 8" d="M46.477,40a5.477,5.477,0,1,0,5.477,5.477A5.483,5.483,0,0,0,46.477,40Zm0,8.763a3.286,3.286,0,1,1,3.286-3.286A3.29,3.29,0,0,1,46.477,48.763Z" transform="translate(770.379 1235.362)" fill="#2b1466"/>
    <path id="Path_9" data-name="Path 9" d="M39.24,40H26.1A1.094,1.094,0,0,0,25,41.1v8.763a1.094,1.094,0,0,0,1.1,1.1H39.24a1.094,1.094,0,0,0,1.1-1.1V41.1A1.094,1.094,0,0,0,39.24,40Zm-1.1,2.191v2.191H27.191V42.191ZM27.191,48.763V46.572H38.145v2.191Z" transform="translate(768.853 1235.362)" fill="#2b1466"/>
  </g>
</svg>
