<?xml version="1.0" encoding="utf-8"?>
<!-- Generator: Adobe Illustrator 25.0.0, SVG Export Plug-In . SVG Version: 6.00 Build 0)  -->
<svg version="1.1" id="Outline" xmlns="http://www.w3.org/2000/svg" xmlns:xlink="http://www.w3.org/1999/xlink" x="0px" y="0px"
	 viewBox="0 0 512 512" style="enable-background:new 0 0 512 512;" xml:space="preserve">
<style type="text/css">
	.st0{fill:#2E1165;}
</style>
<g>
	<path class="st0" d="M488.5,376l-7.6-31.3c0-0.2-0.1-0.3-0.1-0.5C470,310.1,437.9,288,398.8,288h-1.4l-25.5-61.1
		c-7.5-18-24.1-30.6-43.9-34V168c0-4.4-3.6-8-8-8h-24v-56c0-13.2-10.8-24-24-24h-16v-8c0-13.2-10.8-24-24-24h-16
		c-13.2,0-24,10.8-24,24v8h-8V69c0-11.6-9.4-21-21-21H125c-11.6,0-21,9.4-21,21v91H80c-4.4,0-8,3.6-8,8v24c-30.9,0-56,25.1-56,56
		v168c0,4.4,3.6,8,8,8h62.5c13.2,22.9,42.6,30.8,65.5,17.6c7.3-4.2,13.4-10.3,17.6-17.6h156.9c13.2,22.9,42.6,30.8,65.5,17.6
		c7.3-4.2,13.4-10.3,17.6-17.6H488c4.4,0,8-3.6,8-8v-32C496,379.8,492.7,376.3,488.5,376z M472,376h-24v-16h20.1L472,376z
		 M296,183.8V176h16v16h-17.4C295.5,189.4,296,186.6,296,183.8z M317.2,208c17.6,0,33.7,10.1,39.9,25.1L380,288H248v-80H317.2z
		 M208,72c0-4.4,3.6-8,8-8h16c4.4,0,8,3.6,8,8v8h-32V72z M184,96h88c4.4,0,8,3.6,8,8v56h-96V96z M184,186.8V176h96v7.8
		c0,4.4-3.6,8-8,8v0.2h-88.7C183.8,190.3,184,188.5,184,186.8z M232,208v80h-96v-80H232z M152,64h11c2.8,0,5,2.3,5,5v91h-16V64z
		 M152,176h16v10.8c0,2.8-2.3,5-5,5v0.2h-11V176z M120,69c0-2.8,2.3-5,5-5h11v96h-16V69z M120,176h16v16h-11v-0.2c-2.8,0-5-2.3-5-5
		V176z M88,176h16v10.8c0,1.8,0.2,3.5,0.7,5.2H88V176z M32,248c0-22.1,17.9-40,40-40h48v80H32V248z M32,360h16v16H32V360z M80.7,408
		H32v-16h48.7C79.8,397.3,79.8,402.7,80.7,408z M128,432c-17.7,0-32-14.3-32-32s14.3-32,32-32s32,14.3,32,32
		C160,417.7,145.7,432,128,432z M320.7,408H175.3c0.9-5.3,0.9-10.7,0-16h145.4C319.8,397.3,319.8,402.7,320.7,408L320.7,408z
		 M368,432c-17.7,0-32-14.3-32-32s14.3-32,32-32s32,14.3,32,32C400,417.7,385.7,432,368,432z M368,352c-17.1,0-33,9.2-41.5,24H169.5
		c-13.2-22.9-42.6-30.8-65.5-17.6c-7.3,4.2-13.4,10.3-17.6,17.6H64v-24c0-4.4-3.6-8-8-8H32v-40h366.8c30.4,0,54.8,15.2,64.9,40H440
		c-4.4,0-8,3.6-8,8v24h-22.5C401,361.2,385.1,352,368,352z M480,408h-64.7c0.9-5.3,0.9-10.7,0-16H480V408z"/>
	<path class="st0" d="M24,448c-4.4,0-8,3.6-8,8s3.6,8,8,8h464c4.4,0,8-3.6,8-8s-3.6-8-8-8H24z"/>
	<path class="st0" d="M272,320h-16c-4.4,0-8,3.6-8,8s3.6,8,8,8h16c4.4,0,8-3.6,8-8S276.4,320,272,320z"/>
	<path class="st0" d="M160,320h-16c-4.4,0-8,3.6-8,8s3.6,8,8,8h16c4.4,0,8-3.6,8-8S164.4,320,160,320z"/>
	<circle class="st0" cx="128" cy="400" r="16"/>
	<circle class="st0" cx="368" cy="400" r="16"/>
</g>
</svg>
